<svg xmlns="http://www.w3.org/2000/svg"  viewBox="0 0 64 64" width="128px" height="128px"><radialGradient id="RxI5inc~n0_78VO0oDFE3a" cx="32" cy="34" r="32" gradientTransform="matrix(1 0 0 -1 0 66)" gradientUnits="userSpaceOnUse"><stop offset="0" stop-color="#9ceeff"/><stop offset=".642" stop-color="#c5f5ff"/><stop offset="1" stop-color="#dcf9ff"/></radialGradient><path fill="url(#RxI5inc~n0_78VO0oDFE3a)" d="M3,3c0-1.657,1.343-3,3-3s3,1.343,3,3S7.657,6,6,6S3,4.657,3,3z M60,58c-1.657,0-3,1.343-3,3	s1.343,3,3,3s3-1.343,3-3S61.657,58,60,58z M60.302,42H44v-6h14.828c2.089,0,3.955-1.527,4.153-3.607C63.209,30.007,61.339,28,59,28	H44v-8h15.828c2.089,0,3.955-1.527,4.153-3.607C64.209,14.007,62.339,12,60,12H47c-1.657,0-3-1.343-3-3s1.343-3,3-3h2.03	C50.67,6,52,4.67,52,3.029V2.971C52,1.33,50.67,0,49.03,0H14.97C13.33,0,12,1.33,12,2.971V3.03C12,4.67,13.33,6,14.97,6h1.53	C18.433,6,20,7.567,20,9.5S18.433,13,16.5,13H3.698c-1.895,0-3.594,1.419-3.693,3.312C-0.101,18.331,1.505,20,3.5,20H20v5H5	c-2.209,0-4,1.791-4,4s1.791,4,4,4h15v8H4.172c-2.089,0-3.955,1.527-4.153,3.606C-0.209,46.992,1.661,49,4,49h10	c2.209,0,4,1.791,4,4v1c0,2.209-1.791,4-4,4h-0.889c-1.451,0-2.781,0.981-3.054,2.406C9.689,62.323,11.149,64,13,64h37.889	c1.451,0,2.781-0.981,3.054-2.406C54.311,59.677,52.851,58,51,58h-1c-2.209,0-4-1.791-4-4s1.791-5,4-5h10.5	c1.995,0,3.601-1.669,3.495-3.688C63.896,43.419,62.197,42,60.302,42z"/><linearGradient id="RxI5inc~n0_78VO0oDFE3b" x1="32" x2="32" y1="-1.752" y2="79.663" gradientTransform="matrix(1 0 0 -1 0 66)" gradientUnits="userSpaceOnUse"><stop offset="0" stop-color="#dbdee1"/><stop offset=".033" stop-color="#dcdfe2"/><stop offset=".597" stop-color="#eef0f1"/><stop offset="1" stop-color="#f5f6f7"/></linearGradient><path fill="url(#RxI5inc~n0_78VO0oDFE3b)" d="M56,18v28c0,5.52-4.48,10-10,10H18c-5.52,0-10-4.48-10-10V18c0-5.52,4.48-10,10-10h28	C51.52,8,56,12.48,56,18z"/><linearGradient id="RxI5inc~n0_78VO0oDFE3c" x1="51.5" x2="51.5" y1="21.128" y2="69.309" gradientTransform="matrix(1 0 0 -1 0 66)" gradientUnits="userSpaceOnUse"><stop offset="0" stop-color="#fdc763"/><stop offset=".004" stop-color="#fdc763"/><stop offset=".641" stop-color="#fcc586"/><stop offset="1" stop-color="#fdc493"/><stop offset="1" stop-color="#fdc493"/></linearGradient><path fill="url(#RxI5inc~n0_78VO0oDFE3c)" d="M56,18v2h-9V8.05C52.05,8.55,56,12.82,56,18z"/><linearGradient id="RxI5inc~n0_78VO0oDFE3d" x1="51.5" x2="51.5" y1="58.505" y2="9.049" gradientTransform="matrix(1 0 0 -1 0 66)" gradientUnits="userSpaceOnUse"><stop offset="0" stop-color="#6af1fb"/><stop offset=".285" stop-color="#58e0f4"/><stop offset=".858" stop-color="#28b3e2"/><stop offset="1" stop-color="#1ba7dd"/><stop offset="1" stop-color="#1ba7dd"/></linearGradient><rect width="9" height="12" x="47" y="20" fill="url(#RxI5inc~n0_78VO0oDFE3d)"/><linearGradient id="RxI5inc~n0_78VO0oDFE3e" x1="19.5" x2="19.5" y1="41.118" y2="104.292" gradientTransform="matrix(1 0 0 -1 0 66)" gradientUnits="userSpaceOnUse"><stop offset="0" stop-color="#dbdee1"/><stop offset=".24" stop-color="#e7e9eb"/><stop offset=".592" stop-color="#f2f3f4"/><stop offset="1" stop-color="#f5f6f7"/></linearGradient><path fill="url(#RxI5inc~n0_78VO0oDFE3e)" d="M30.987,10.759C30.856,12.06,29.663,13,28.356,13H19.5c-1.381,0-2.5,1.119-2.5,2.5l0,0	c0,1.381,1.119,2.5,2.5,2.5H27l-7,4H8v-4c0-5.523,4.477-10,10-10h10.5C29.965,8,31.138,9.263,30.987,10.759z"/><linearGradient id="RxI5inc~n0_78VO0oDFE3f" x1="27.5" x2="27.5" y1="-5.298" y2="48.626" gradientTransform="matrix(1 0 0 -1 0 66)" gradientUnits="userSpaceOnUse"><stop offset="0" stop-color="#828c95"/><stop offset="1" stop-color="#8a949f"/></linearGradient><path fill="url(#RxI5inc~n0_78VO0oDFE3f)" d="M27.5,18C19.51,18,13,24.51,13,32.5c0,3.77,1.45,7.2,3.81,9.78c0.04,0.05,0.08,0.09,0.12,0.13	C19.58,45.23,23.34,47,27.5,47s7.92-1.77,10.57-4.59c0.04-0.04,0.08-0.08,0.12-0.13C40.55,39.7,42,36.27,42,32.5	C42,24.51,35.49,18,27.5,18z M36.84,40.79c-2.19-2.04-5.11-3.29-8.31-3.29h-2.06c-3.2,0-6.12,1.25-8.31,3.29	C16.2,38.59,15,35.69,15,32.5C15,25.61,20.61,20,27.5,20S40,25.61,40,32.5C40,35.69,38.8,38.59,36.84,40.79z"/><linearGradient id="RxI5inc~n0_78VO0oDFE3g" x1="27.5" x2="27.5" y1="16.66" y2="70.584" gradientTransform="matrix(1 0 0 -1 0 66)" gradientUnits="userSpaceOnUse"><stop offset="0" stop-color="#828c95"/><stop offset="1" stop-color="#8a949f"/></linearGradient><ellipse cx="27.5" cy="29" fill="url(#RxI5inc~n0_78VO0oDFE3g)" rx="4.5" ry="5"/><linearGradient id="RxI5inc~n0_78VO0oDFE3h" x1="45.998" x2="45.998" y1="29.22" y2="43.402" gradientTransform="matrix(1 0 0 -1 0 66)" gradientUnits="userSpaceOnUse"><stop offset="0" stop-color="#dbdee1"/><stop offset=".24" stop-color="#e7e9eb"/><stop offset=".592" stop-color="#f2f3f4"/><stop offset="1" stop-color="#f5f6f7"/></linearGradient><path fill="url(#RxI5inc~n0_78VO0oDFE3h)" d="M56,42v4c0,5.52-4.48,10-10,10h-7.5c-1.47,0-2.64-1.26-2.49-2.76	c0.13-1.3,1.32-2.24,2.63-2.24H49.5c0.83,0,1.5-0.67,1.5-1.5S50.33,48,49.5,48h-4.39c-1.45,0-2.78-0.98-3.05-2.41	C41.69,43.68,43.15,42,45,42H56z"/><linearGradient id="RxI5inc~n0_78VO0oDFE3i" x1="51.5" x2="51.5" y1=".056" y2="47.604" gradientTransform="matrix(1 0 0 -1 0 66)" gradientUnits="userSpaceOnUse"><stop offset="0" stop-color="#fca853"/><stop offset=".612" stop-color="#fdcb49"/><stop offset="1" stop-color="#fddc44"/></linearGradient><rect width="9" height="12" x="47" y="32" fill="url(#RxI5inc~n0_78VO0oDFE3i)"/><linearGradient id="RxI5inc~n0_78VO0oDFE3j" x1="51.5" x2="51.5" y1="29.485" y2="-13.216" gradientTransform="matrix(1 0 0 -1 0 66)" gradientUnits="userSpaceOnUse"><stop offset="0" stop-color="#00d772"/><stop offset=".746" stop-color="#00b26e"/><stop offset="1" stop-color="#00b26e"/></linearGradient><path fill="url(#RxI5inc~n0_78VO0oDFE3j)" d="M56,44v2c0,5.18-3.95,9.45-9,9.95V44H56z"/><linearGradient id="RxI5inc~n0_78VO0oDFE3k" x1="51.5" x2="51.5" y1="15.669" y2="41.422" gradientTransform="matrix(1 0 0 -1 0 66)" gradientUnits="userSpaceOnUse"><stop offset="0" stop-color="#fca853"/><stop offset=".612" stop-color="#fdcb49"/><stop offset="1" stop-color="#fddc44"/></linearGradient><rect width="9" height="2" x="47" y="42" fill="url(#RxI5inc~n0_78VO0oDFE3k)"/><linearGradient id="RxI5inc~n0_78VO0oDFE3l" x1="51.5" x2="51.5" y1="52.714" y2="-19.92" gradientTransform="matrix(1 0 0 -1 0 66)" gradientUnits="userSpaceOnUse"><stop offset="0" stop-color="#00d772"/><stop offset=".746" stop-color="#00b26e"/><stop offset="1" stop-color="#00b26e"/></linearGradient><path fill="url(#RxI5inc~n0_78VO0oDFE3l)" d="M56,44v2c-0.006,1.707-0.442,3.445-1.29,4.9c-0.68,1.22-1.62,2.28-2.73,3.11	c-1.445,1.09-3.174,1.755-4.98,1.94V51h2.5c0.83,0,1.5-0.67,1.5-1.5S50.33,48,49.5,48H47v-4H56z"/></svg>